<svg xmlns="http://www.w3.org/2000/svg" viewBox="0 0 100 100">
  <rect width="100" height="100" rx="16" fill="#24292E"/>
  <!-- GitHub Octocat (simplified) -->
  <path d="M50 8C27 8 8 27 8 50C8 68.8 20.4 84.9 37.6 90.5C39.8 90.9 40.6 89.5 40.6 88.4C40.6 87.4 40.5 84.2 40.5 80.4C29.4 82.8 26.8 75.6 26.8 75.6C24.8 70.7 22 69.3 22 69.3C18.2 66.7 22.3 66.8 22.3 66.8C26.5 67.1 28.7 71.1 28.7 71.1C32.5 77.9 38.9 76 41.1 74.9C41.5 72.2 42.6 70.3 43.8 69.3C34.3 68.2 24.4 64.7 24.4 49.5C24.4 44.8 26.1 40.9 28.9 37.9C28.5 36.8 27 32.3 29.3 26.2C29.3 26.2 32.8 25 40.5 30.4C43.8 29.4 47.4 28.9 51 28.9C54.6 28.9 58.2 29.4 61.5 30.4C69.2 25 72.7 26.2 72.7 26.2C75 32.3 73.5 36.8 73.1 37.9C75.9 40.9 77.6 44.8 77.6 49.5C77.6 64.8 67.6 68.2 58.1 69.3C59.7 70.7 61 73.5 61 77.6C61 83.5 60.9 88.3 60.9 88.4C60.9 89.5 61.7 90.9 63.9 90.5C81.2 84.9 93.6 68.8 93.6 50C94 27 75 8 50 8Z" fill="white"/>
</svg>
